# xmcd
#
# Track frame offsets:
#	150
#	19027
#	36084
#	51014
#	67319
#	83829
#	103804
#	121606
#	139029
#	154279
#
# Disc length: 2255 seconds
#
# Revision: 0
# Processed by: cddbd v1.5.2PL0 Copyright (c) Steve Scherf et al.
# Submitted via: audiograbber 1.83.01
#
DISCID=8208cd0a
DTITLE=Vision - Vision (25th Anniversary Edition)
DYEAR=2010
DGENRE=Rock
TTITLE0=Dynamos
TTITLE1=Lord Is My Joy
TTITLE2=Old Man
TTITLE3=Dedicated
TTITLE4=Soldiers Song
TTITLE5=Standing On The Rock
TTITLE6=Don't Say It's Over
TTITLE7=Psalm 23
TTITLE8=You Are My Only Lord
TTITLE9=You're The One
EXTD=Remastered by J Powell at Steinhaus
EXTT0=
EXTT1=
EXTT2=
EXTT3=
EXTT4=
EXTT5=
EXTT6=
EXTT7=
EXTT8=
EXTT9=
PLAYORDER=
